<svg xmlns="http://www.w3.org/2000/svg" viewBox="0 0 120 160" fill="#0C6486" aria-hidden="true">
  <path d="M58 158 C 54 120, 60 90, 64 60 L72 60 C 74 92, 66 126, 66 158 Z"/>
  <path d="M64 58 C 40 38, 18 36, 4 46 C 22 40, 44 46, 63 60 Z"/>
  <path d="M64 58 C 58 26, 64 10, 74 2 C 68 22, 70 40, 68 60 Z"/>
  <path d="M66 58 C 92 34, 112 36, 118 50 C 98 40, 78 46, 66 60 Z"/>
  <path d="M63 60 C 40 58, 20 66, 10 80 C 30 64, 48 62, 62 62 Z"/>
  <path d="M67 60 C 90 58, 106 66, 114 82 C 96 66, 78 62, 66 62 Z"/>
  <circle cx="65" cy="58" r="5"/>
</svg>